<?xml version="1.0" encoding="UTF-8" standalone="no"?>
<svg height="181.18399" viewBox="0 0 137.5836 47.938266" width="520.00104" xmlns="http://www.w3.org/2000/svg" xmlns:xlink="http://www.w3.org/1999/xlink">
   <linearGradient id="a" gradientUnits="userSpaceOnUse" x1="57.67932437" x2="63.48402552" xlink:href="#b" y1="63.48033207" y2="60.64930053"/>
   <linearGradient id="b">
      <stop offset="0" stop-color="#fff" stop-opacity=".36470589"/>
      <stop offset="1" stop-color="#fff" stop-opacity="0"/>
   </linearGradient>
   <linearGradient id="c" gradientUnits="userSpaceOnUse" x1="47.91268244" x2="21.62206806" xlink:href="#d" y1="55.12388425" y2="70.69445513"/>
   <linearGradient id="d">
      <stop offset="0" stop-opacity=".10217391"/>
      <stop offset="1" stop-opacity=".30434781"/>
   </linearGradient>
   <linearGradient id="e" gradientUnits="userSpaceOnUse" x1="42.65271779" x2="59.44529932" xlink:href="#d" y1="37.38745268" y2="52.36864186"/>
   <linearGradient id="f" gradientUnits="userSpaceOnUse" x1="57.67931959" x2="68.3833376" xlink:href="#d" y1="63.48033168" y2="70.69445748"/>
   <linearGradient id="g" gradientUnits="userSpaceOnUse" x1="47.91268592" x2="32.28535283" xlink:href="#b" y1="55.12398593" y2="48.50280396"/>
   <linearGradient id="h" gradientTransform="matrix(-1.0259591 0 0 1.0259591 114.99584 -27.091413)" gradientUnits="userSpaceOnUse" x1="70.512688" x2="63.043533" xlink:href="#b" y1="62.847496" y2="59.204388"/>
   <g transform="translate(-21.622071 -22.756188)">
      <path d="m130.62003 31.230374c-.76778 0-1.39115.240125-1.87101.719987-.47987.479841-.71946 1.103245-.71946 1.871001 0 .767745.23964 1.391149.71946 1.871.47986.479851 1.10323.719987 1.87101.719987.76772 0 1.39274-.240156 1.8726-.719987.47983-.479851.71997-1.103255.71997-1.871 0-.767756-.24015-1.39116-.71997-1.871001-.47986-.479851-1.10488-.719987-1.8726-.719987zm-18.65594 1.535399v18.958144c0 2.495194.54266 4.285728 1.63031 5.373358 1.11963 1.08765 2.94426 1.631901 5.47144 1.631901h2.59098v-3.071332h-2.59098c-1.31158 0-2.25535-.303581-2.83116-.91138-.54384-.607809-.90367-1.617773-.81541-3.022547v-8.641387h6.23755v-3.071331h-6.23755v-7.245426zm-39.628236 6.861573v3.023614h8.571406c1.375555 0 2.478707.430975 3.310442 1.294699.831735.831725 1.248571 1.919683 1.248571 3.263248v.291075c-.799745-.54383-1.759232-.974805-2.878871-1.294699-1.11964-.319884-2.208665-.480877-3.264315-.480877h-3.070265c-2.367226 0-4.271026.607685-5.71056 1.823293-1.439533 1.215597-2.159418 2.831462-2.159418 4.8628 0 2.031348.688439 3.663628 2.063984 4.879236 1.407554 1.215597 3.277764 1.823283 5.613001 1.823283h2.879406c1.279576 0 2.512255-.336094 3.695884-1.007872 1.215607-.671777 2.190833-1.584091 2.926589-2.73572v3.35975h3.263248v-11.520269c0-2.271258-.735613-4.094305-2.207136-5.46985-1.439533-1.407544-3.343323-2.111711-5.71056-2.111711zm23.525109.383853v18.717977h3.455173v-8.544372c0-2.143301.623414-3.855729 1.871014-5.135315 1.27958-1.311576 2.94323-1.966959 4.99057-1.966959v-3.071331c-1.40754 0-2.76656.351811-4.07814 1.055588-1.27958.703767-2.23907 1.616081-2.878868 2.73572v-3.791308zm33.032817 0v18.717977h3.45408v-18.717977zm9.0984 0l8.29834 9.358726-8.29834 9.359251h4.61678l5.98943-6.756074 5.99104 6.756074h4.61625l-8.29784-9.359251 8.29784-9.358726h-4.61625l-5.99104 6.756073-5.98943-6.756073zm-61.739358 8.736821h3.070265c1.183618 0 2.335545.191382 3.455174.575245 1.151629.351883 2.048214.831642 2.688012 1.439441v.240167c-.415872 1.535501-1.215966 2.768181-2.399595 3.695874-1.183608.927713-2.526906 1.390667-4.030418 1.390667h-2.976431c-1.279576 0-2.301975-.335027-3.069731-1.006815-.767746-.671788-1.151547-1.568455-1.151547-2.6721 0-1.103645.399529-1.98283 1.199264-2.654608.831735-.671787 1.903431-1.007871 3.215007-1.007871z" fill="#10a0cc"/>
      <path d="m45.002437 22.756188l-8.243222 16.901578 22.686366 12.711048zm-10.733471 22.007735l-12.646895 25.930531 37.527665-15.504027zm27.655732 12.688241l-11.83572 6.794774 18.294359 6.447516z" fill="#10a0cc"/>
      <path d="m57.679321 63.480331l4.245388-6.028659 6.458628 13.242772z" fill="url(#a)"/>
      <path d="m21.622071 70.694454l26.290612-15.57057 11.237011.06669z" fill="url(#c)"/>
      <path d="m59.445653 52.36864l-22.686243-12.711243 5.893304-2.269945z" fill="url(#e)"/>
      <path d="m68.383337 70.694454l-18.294339-6.447322 7.590323-.766801z" fill="url(#f)"/>
      <path d="m21.622071 70.694454l26.290612-15.57057-13.643871-10.359858z" fill="url(#g)"/>
      <path d="m59.445643 52.36864l-16.792929-14.981188 2.349723-14.631264z" fill="url(#h)"/>
   </g>
</svg>
